<?xml version="1.0" encoding="UTF-8"?> <svg xmlns="http://www.w3.org/2000/svg" viewBox="0 0 800 197"><g fill="#fff"><path d="m45.26525 165.3855c-7.56737 0-14.55648-3.05764-18.05023-5.96829v30.56668h-12.22732v-98.39841h10.33265l1.01921 7.27824c3.34838-4.65833 11.20811-8.73518 19.79792-8.73518 21.25 0 26.779 17.178 26.779 37.55418.00323 22.70857-7.56576 37.70278-27.65119 37.70278m-18.05029-15.5757a26.64218 26.64218 0 0 0 16.30093 5.67755c14.11876 0 17.1764-11.06112 17.1764-27.94515 0-16.88727-2.61991-27.51551-16.30417-27.51551-7.27824 0-13.09793 3.49536-17.17478 7.13287v42.65024z"></path><path d="m124.73782 101.77469a87.36894 87.36894 0 0 0 -22.56159 7.569v54.4366h-12.22732v-72.1961h10.04676l1.30672 8.44283c4.36759-4.36437 12.3743-8.585 21.83472-9.46043z"></path><path d="m143.951 133.07017c.73007 15.285 4.51457 22.56319 19.21481 22.56319a61.38557 61.38557 0 0 0 21.25-4.07361l1.89306 9.31182a67.698 67.698 0 0 1 -23.29005 4.36921c-26.05534 0-31.29516-17.76112-31.29516-37.99191 0-20.81391 6.84051-37.11806 28.9676-37.11806 19.65094 0 27.8014 13.82962 27.8014 31.14977v11.78959zm0-9.6058h32.75209v-2.62151c0-13.39352-4.219-21.54238-16.15719-21.54238-13.53566 0-16.44792 9.75278-16.5949 24.16389"></path><path d="m223.1346 165.24126c-7.27826 0-16.59331-1.60392-22.85394-4.80855l2.32917-9.60418a51.26114 51.26114 0 0 0 19.94329 4.51619c9.60418 0 14.70024-2.62314 14.70024-10.772 0-7.71758-5.24145-10.04513-14.99422-12.3743-15.86484-3.7845-21.8315-9.31828-21.8315-21.68936 0-13.53888 7.42362-20.37778 24.30766-20.37778 6.98425 0 14.41111 1.30995 19.50394 3.63589l-2.03681 9.75439a49.3683 49.3683 0 0 0 -17.17478-3.49536c-9.17131 0-12.66345 2.47614-12.66345 9.756 0 7.56736 3.49214 9.02431 13.828 11.788 14.11875 3.78611 22.9977 8.29745 22.9977 22.12547-.00162 15.138-11.066 21.5456-26.05533 21.5456"></path><path d="m301.29835 163.055c-3.05765 1.16458-10.19052 2.18541-14.84563 2.18541-12.3743 0-17.61412-6.84536-17.61412-18.05508v-45.70138h-12.51644v-9.90138h12.51644v-17.61089l12.22733-1.74607v19.35858h20.52315l-1.01761 9.90137h-19.50554v45.12317c0 6.69353 1.60069 8.7368 8.29744 8.7368a53.92972 53.92972 0 0 0 10.91737-1.46017z"></path><path d="m341.76205 165.24206c-20.9609 0-30.42294-15.72106-30.42294-37.55579s9.462-37.5558 30.42294-37.5558c20.95926 0 30.42131 15.72107 30.42131 37.5558.0016 21.83473-9.462 37.55579-30.42131 37.55579m0-65.215c-15.13959 0-18.19724 12.37108-18.19724 27.65926 0 15.28172 3.05925 27.656 18.19724 27.656 15.13633 0 18.1956-12.37591 18.1956-27.656 0-15.28818-3.05927-27.65926-18.1956-27.65926"></path><path d="m501.46664 13a8.28777 8.28777 0 1 1 -8.28778 8.28778 8.2873 8.2873 0 0 1 8.28778-8.28778"></path><path d="m524.2376 34.85217a9.206 9.206 0 1 1 -9.20522 9.20684 9.20688 9.20688 0 0 1 9.20522-9.20684"></path><path d="m547.00866 56.70435a10.1251 10.1251 0 1 1 -10.12592 10.1259 10.12647 10.12647 0 0 1 10.12592-10.1259"></path><path d="m569.77971 78.55652a11.04336 11.04336 0 1 1 -11.04336 11.04336 11.0433 11.0433 0 0 1 11.04336-11.04336"></path><path d="m455.92773 13.92035a7.36709 7.36709 0 1 1 -7.36871 7.36709 7.367 7.367 0 0 1 7.36871-7.36709"></path><path d="m478.69558 35.76947a8.28777 8.28777 0 1 1 -8.28778 8.28777 8.2873 8.2873 0 0 1 8.28778-8.28777"></path><path d="m501.46827 57.6231a9.206 9.206 0 1 1 -9.20523 9.20683 9.20687 9.20687 0 0 1 9.20523-9.20683"></path><path d="m524.2376 79.47542a10.12509 10.12509 0 1 1 -10.12592 10.1259 10.12543 10.12543 0 0 1 10.12592-10.1259"></path><path d="m547.00866 101.32759a11.04417 11.04417 0 1 1 -11.04336 11.04341 11.04469 11.04469 0 0 1 11.04336-11.04336"></path><path d="m410.38572 14.83764a6.448 6.448 0 1 1 -6.448 6.448 6.44742 6.44742 0 0 1 6.448-6.448"></path><path d="m433.15682 36.68982a7.36708 7.36708 0 1 1 -7.36871 7.36709 7.367 7.367 0 0 1 7.36871-7.36709"></path><path d="m455.92773 58.53958a8.28776 8.28776 0 1 1 -8.28773 8.28777 8.28833 8.28833 0 0 1 8.28778-8.28777"></path><path d="m478.69884 80.39175a9.206 9.206 0 1 1 -9.20685 9.20684 9.20653 9.20653 0 0 1 9.20685-9.20684"></path><path d="m501.46664 102.24392a10.1251 10.1251 0 1 1 -10.12592 10.12591 10.12648 10.12648 0 0 1 10.12592-10.12591"></path><path d="m524.23918 124.0969a11.04335 11.04335 0 1 1 -11.04336 11.04336 11.04469 11.04469 0 0 1 11.04336-11.04336"></path><path d="m455.92936 105.00209a7.36708 7.36708 0 1 1 -7.36872 7.36709 7.367 7.367 0 0 1 7.36872-7.36709"></path><path d="m433.15825 127.77381a7.36628 7.36628 0 1 1 -7.36709 7.36709 7.367 7.367 0 0 1 7.36709-7.36709"></path><path d="m410.38734 150.54021a7.3687 7.3687 0 1 1 -7.36871 7.3687 7.36874 7.36874 0 0 1 7.36871-7.3687"></path><path d="m455.92936 150.54489a7.36628 7.36628 0 1 1 -7.36872 7.36709 7.367 7.367 0 0 1 7.36872-7.36709"></path><path d="m501.46664 150.54651a7.36628 7.36628 0 1 1 -7.36709 7.36708 7.36736 7.36736 0 0 1 7.36709-7.36708"></path><path d="m478.69884 127.77381a7.36628 7.36628 0 1 1 -7.36872 7.36709 7.367 7.367 0 0 1 7.36872-7.36709"></path><path d="m721.04214 127.78078c-.12279 6.31878-.62508 12.56328-2.80245 18.57033-4.19474 11.56023-12.65535 17.88063-24.94079 18.54611a45.06993 45.06993 0 0 1 -11.81707-.76077c-9.70757-2.04166-15.82927-8.01318-19.063-17.21517-2.51005-7.13771-2.83957-14.53386-2.63929-21.99463a48.70177 48.70177 0 0 1 3.224-16.9971c4.06554-10.14367 11.66036-15.58539 22.371-16.90827a42.13357 42.13357 0 0 1 13.75369.56533c8.887 1.82684 14.949 6.981 18.41045 15.32211 2.7782 6.69676 3.37263 13.744 3.50345 20.87206m-12.384-.36183c-.09533-1.95443-.13733-4.50649-.36024-7.044a35.30753 35.30753 0 0 0 -2.50521-11.04335c-2.06267-4.78432-5.51925-7.78381-10.75421-8.63988a28.24256 28.24256 0 0 0 -10.34074.20674 12.95556 12.95556 0 0 0 -9.64615 7.91627 24.12223 24.12223 0 0 0 -1.22114 3.35323c-2.05458 7.4866-1.89142 15.12827-1.45049 22.77479a35.34081 35.34081 0 0 0 2.12241 10.4764c1.98029 5.26889 5.52249 8.72549 11.23718 9.64779a27.67243 27.67243 0 0 0 5.99413.34889c8.62376-.49265 13.17548-4.22384 15.34151-12.56006 1.26634-4.87316 1.42462-9.85454 1.58295-15.43679"></path><path d="m735.45473 127.92678c0-11.39709.04357-22.79417-.04525-34.18965-.01292-1.72507.51363-2.09334 2.09821-2.02227 2.762.12277 5.5354.06784 8.30227.01616.99178-.01777 1.34871.30851 1.29222 1.30672-.07271 1.29865-.02426 2.60537-.01617 3.90725.01291 1.70407.09691 1.77191 1.60552 1.0386a100.6962 100.6962 0 0 1 11.33735-4.88608c6.03775-2.06266 12.21116-3.09318 18.56389-1.97059 7.21685 1.276 10.87212 5.84391 11.16931 13.786.10016 2.65544.04525 5.31735.04525 7.976.0032 16.44469-.01937 32.88939.04037 49.33085.00483 1.47309-.39252 1.82037-1.79939 1.7606-2.70875-.1163-5.43042-.11952-8.13917 0-1.4149.063-1.675-.42965-1.67172-1.738q.0678-24.26.02258-48.51677c-.00158-2.061-.03066-4.1253-.1712-6.17988-.2407-3.48891-1.948-5.319-5.43524-5.80838-6.28649-.88353-12.30324.428-18.194 2.46485-2.04487.70746-3.99125 1.68791-6.01192 2.46484a1.96906 1.96906 0 0 0 -1.38908 2.187q.06056 23.69064.02583 47.378c0 2.116-.04845 4.23514.021 6.34948.03391 1.03375-.23744 1.41817-1.34225 1.3891-2.87349-.0743-5.75511-.09368-8.627.00646-1.34225.04846-1.7186-.33435-1.71377-1.69761.05817-11.45039.03234-22.9024.03234-34.35279"></path><path d="m603.709 128.00092a62.04129 62.04129 0 0 1 2.04487-17.55274c3.66173-12.77812 12.08842-19.34242 25.37368-19.73493a59.1772 59.1772 0 0 1 17.52046 2.271c.81728.22451 1.11935.52173.9449 1.45532-.47647 2.55692-.8577 5.13322-1.19043 7.71436-.168 1.30027-.43126 1.843-1.96413 1.28249a37.09871 37.09871 0 0 0 -11.92363-2.32108c-9.37968-.21645-15.00716 3.96863-17.01975 13.15607a63.89777 63.89777 0 0 0 .2827 29.029 20.75427 20.75427 0 0 0 .65579 2.00612c2.095 5.87945 6.3446 8.77395 12.50027 9.21653 5.91176.4248 11.37771-1.15167 16.74676-3.33869 1.89788-.7737 1.92533-.7737 2.229 1.30834.36664 2.52138.67191 5.05245 1.04181 7.57383a.95268.95268 0 0 1 -.68326 1.23242c-9.00652 3.44206-18.21012 4.94585-27.73353 2.58437-9.30539-2.30978-14.36916-8.75133-16.77747-17.66742a68.12087 68.12087 0 0 1 -2.04807-18.215"></path></g></svg> 