<svg version="1.1" xmlns="http://www.w3.org/2000/svg" xmlns:xlink="http://www.w3.org/1999/xlink" viewBox="180 100 100 70">

  <g fill="none" stroke="#000" stroke-linejoin="round" stroke-linecap="round">
    <path stroke="#aaa" stroke-width="0.5" d="M215.15956795187572,118.76756967917962L215.70777520969347,118.58355398678128L215.82959904476405,117.51507577285544L216.69251787651422,116.8621168643452L217.1899652030525,117.66941151486695L219.63659389072046,115.98952632297244L221.31167162294128,116.14979805506131L222.4283901110885,115.64523889848522L222.8547735338356,114.3986809822384L223.16948510776803,114.51740078378572L224.03240393951813,118.58948997685864L225.13897044140947,117.71689943548587L226.10340913571844,117.7821953263369L227.0272398850039,116.83837290403574L227.890158716754,116.55938137039955L229.08809309494825,116.8621168643452L229.23022090253062,117.37261201099867L230.52967514328378,118.80912160972117L231.7580654802457,119.68171215109395L233.5245110887695,120.37622299014573L233.97119848402838,122.24605986451596L234.48894978307845,122.55473134853898L234.49910176933435,123.7478653540895L233.85952663521363,125.74829401016176L233.86967862146952,126.89394009509336L234.69198950819612,128.02771419987022L235.45338847738742,128.413553554899L236.62086689681405,128.3126417235838L237.07770627832878,129.52951968944376L236.00159573520511,136.37371624864647L237.94062511007894,136.7180036731337L237.59545757737885,138.6828163887418L239.8491985261851,139.0745917338479L239.5243349659968,141.039404449456L239.8999584574645,141.11063633038438L239.5649429110203,143.02796112537354L241.16895673944998,143.3247606292418L241.00652495935583,144.27451904162032L245.5038548707123,145.0936856722968L245.22975124180346,146.7082749733403L249.98088080955705,147.5036976437073L249.96057683704532,148.4950079866274L248.9047702664334,149.71782194256474L249.60525731808934,151.05341970997205L249.05705006027165,151.23743540237038L247.79820376454205,150.50137263277702L247.23984452046847,150.72100426563955L245.8997823346918,150.2461250594503L245.65613466455056,150.5904124839375L243.83892912474738,151.07716367028152L243.2704178944179,149.71782194256474L241.41260440959115,150.03836540674249L240.62074948163223,149.67033402194582L239.34159921339085,150.05023738689724L238.1639688077084,149.56348620055323L237.36196189349351,148.6196637782521L236.68177881434934,148.48907199655002L235.37217258734034,149.17764684552446L234.60062163189315,150.91095594811526L233.36207930867533,149.95526154565937L232.86463198213704,150.25799703960504L232.1438409579693,149.62878209140425L230.3976993219573,149.30230263714915L229.54493247646303,148.7205756095673L228.47897391959526,148.98175917297138L227.36225543144803,150.21644510906347L227.5246872115422,151.3027312932214L226.96632796746854,151.6351467375539L226.45872865467436,150.67351634502063L224.81410688122122,149.10641496459607L224.64152311487118,148.0082568002834L225.0577545513624,147.41465779254682L224.15422777458878,145.49139700748032L224.71258701866236,145.15304557307047L224.72273900491825,143.80557582550844L224.31665955468287,143.31882463916443L224.09331585705348,141.53802761595472L222.46899805611207,140.0837100470001L220.81422429640298,140.6595010845046L220.7330084063559,139.83439846375074L219.36249026181162,138.52254465665288L219.07823464664688,136.55179595096746L219.9310014921411,136.44494812957487L220.21525710730583,134.207079870408L219.28127437176454,133.2513854679521L219.47416211062637,132.77650626176285L218.5706353338527,132.3016270555736L218.43865951252621,130.82950151638687L217.3625489694025,129.17929627487916L216.8651016428642,127.43411519213365L217.16966123054073,125.93824569263747L216.65190993149065,124.39488827252237L217.22042116182013,122.98805862418668L216.14431061869647,122.78029897147887L216.9260135603995,121.04698986888808L215.66716726466996,119.84198388318282L215.15956795187572,118.76756967917962"/>
    <path stroke="#CC61B0" stroke-width="0.5" fill="#CC61B0" fill-opacity="0.2" d="M215.15956795187572,114.3986809822384L249.98088080955705,114.3986809822384L249.98088080955705,151.6351467375539L215.15956795187572,151.6351467375539L215.15956795187572,114.3986809822384"/>
    <circle cx="200" cy="117" r="0.3" stroke="#52BCA3" fill="#52BCA3"/>
  </g>
</svg>