<svg xmlns="http://www.w3.org/2000/svg" viewBox="0 0 11.493 11.209" height="42.366" width="43.439"><path d="M5.746 0A5.746 5.746 0 003.93 11.2c.287.052.392-.125.392-.278 0-.136-.005-.497-.008-.977-1.598.347-1.935-.77-1.935-.77-.262-.664-.638-.841-.638-.841-.522-.356.04-.35.04-.35.576.041.88.593.88.593.512.878 1.344.625 1.672.477.052-.37.2-.624.365-.768-1.276-.145-2.618-.638-2.618-2.84 0-.627.224-1.14.592-1.542-.06-.145-.257-.73.056-1.52 0 0 .482-.155 1.58.589a5.49 5.49 0 011.439-.194c.488.002.98.066 1.438.194 1.098-.744 1.58-.59 1.58-.59.313.792.115 1.376.056 1.521.369.402.591.915.591 1.542 0 2.208-1.344 2.694-2.624 2.836.207.177.39.528.39 1.064 0 .768-.007 1.388-.007 1.576 0 .154.104.333.395.277A5.749 5.749 0 005.746 0" fill="#fff" fill-rule="evenodd"/></svg>